<svg width="18" height="18" viewBox="0 0 18 18" fill="none" xmlns="http://www.w3.org/2000/svg">
<path d="M14.7257 5.84868C14.8203 5.94332 14.9528 6.0001 15.0853 6.0001C15.2178 6.0001 15.3503 5.94332 15.4449 5.84868C15.6342 5.6594 15.6342 5.33764 15.4449 5.12943L12.833 2.5553C12.6437 2.36603 12.3219 2.36603 12.1137 2.5553C11.9244 2.74458 11.9244 3.06634 12.1137 3.27454L14.7257 5.84868Z" fill="#373737"/>
<path d="M14.7256 9.69095C14.8202 9.78558 14.9527 9.84237 15.0852 9.84237C15.2177 9.84237 15.3502 9.78558 15.4448 9.69095C15.6341 9.50167 15.6341 9.1799 15.4448 8.9717L9.00951 2.5553C8.82024 2.36603 8.49847 2.36603 8.29027 2.5553C8.10099 2.74458 8.10099 3.06634 8.29027 3.27454L14.7256 9.69095Z" fill="#373737"/>
<path d="M14.7258 13.5143C14.8204 13.6089 14.9529 13.6657 15.0854 13.6657C15.2179 13.6657 15.3504 13.6089 15.445 13.5143C15.6343 13.325 15.6343 13.0033 15.445 12.795L5.18633 2.5553C4.99705 2.36603 4.67529 2.36603 4.46709 2.5553C4.27781 2.74458 4.27781 3.06634 4.46709 3.27454L14.7258 13.5143Z" fill="#373737"/>
<path d="M12.7952 15.4258C12.8899 15.5205 13.0224 15.5772 13.1549 15.5772C13.2874 15.5772 13.4198 15.5205 13.5145 15.4258C13.7038 15.2365 13.7038 14.9148 13.5145 14.7066L3.25581 4.46683C3.06654 4.27755 2.74477 4.27755 2.53657 4.46683C2.34729 4.6561 2.34729 4.97787 2.53657 5.18607L12.7952 15.4258Z" fill="#373737"/>
<path d="M8.9719 15.4257C9.06654 15.5204 9.19903 15.5772 9.33152 15.5772C9.46401 15.5772 9.59651 15.5204 9.69114 15.4257C9.88042 15.2365 9.88042 14.9147 9.69114 14.7065L3.25581 8.2901C3.06654 8.10082 2.74477 8.10082 2.53657 8.2901C2.34729 8.47937 2.34729 8.80114 2.53657 9.00934L8.9719 15.4257Z" fill="#373737"/>
<path d="M5.14856 15.4259C5.24319 15.5206 5.37569 15.5773 5.50818 15.5773C5.64067 15.5773 5.77316 15.5206 5.8678 15.4259C6.05707 15.2366 6.05707 14.9149 5.8678 14.7067L3.25581 12.1325C3.06654 11.9433 2.74477 11.9433 2.53657 12.1325C2.34729 12.3218 2.34729 12.6436 2.53657 12.8518L5.14856 15.4259Z" fill="#373737"/>
<path d="M17.47 0H0.511041C0.227129 0 0 0.227129 0 0.511041V17.489C0 17.7729 0.227129 18 0.511041 18H17.489C17.7729 18 18 17.7729 18 17.489V0.511041C17.9811 0.227129 17.7539 0 17.47 0ZM16.9779 16.9779H1.00315V1.00315H16.959V16.9779H16.9779Z" fill="#373737"/>
</svg>
