<svg width="14" height="18" viewBox="0 0 14 18" fill="none" xmlns="http://www.w3.org/2000/svg">
<path d="M12.659 11.1323C12.659 11.4136 12.6395 11.6948 12.6024 11.9741C12.6102 11.9214 12.616 11.8706 12.6238 11.8179C12.5496 12.3667 12.4012 12.9038 12.1863 13.4136C12.2059 13.3667 12.2254 13.3198 12.2449 13.273C12.1238 13.5581 11.9813 13.8335 11.8192 14.0991C11.7391 14.23 11.6531 14.3589 11.5633 14.4839C11.5399 14.5152 11.5184 14.5464 11.4949 14.5777C11.4832 14.5933 11.4715 14.6187 11.4559 14.6284C11.4539 14.6304 11.5555 14.5034 11.5008 14.5698C11.452 14.6304 11.4051 14.689 11.3543 14.7476C11.157 14.9819 10.9402 15.2026 10.7098 15.4038C10.6531 15.4546 10.5945 15.5034 10.534 15.5523C10.5067 15.5737 10.4813 15.5952 10.4539 15.6167C10.4402 15.6265 10.4266 15.6382 10.4129 15.648C10.5613 15.5288 10.4852 15.5913 10.45 15.6187C10.327 15.7105 10.2 15.7984 10.0711 15.8823C9.77423 16.0737 9.46173 16.2378 9.13751 16.3765C9.18439 16.3569 9.23126 16.3374 9.27814 16.3179C8.76642 16.5327 8.23126 16.6792 7.68244 16.7554C7.73517 16.7476 7.78595 16.7417 7.83869 16.7339C7.28009 16.8081 6.71564 16.8081 6.15704 16.7339C6.20978 16.7417 6.26056 16.7476 6.31329 16.7554C5.76447 16.6812 5.22736 16.5327 4.71759 16.3179C4.76447 16.3374 4.81134 16.3569 4.85822 16.3765C4.57306 16.2554 4.29767 16.1128 4.03204 15.9507C3.90119 15.8706 3.77228 15.7847 3.64728 15.6948C3.61603 15.6714 3.58478 15.6499 3.55353 15.6265C3.5379 15.6148 3.51251 15.603 3.50275 15.5874C3.50079 15.5855 3.62775 15.687 3.56134 15.6323C3.50079 15.5835 3.4422 15.5366 3.38361 15.4859C3.14923 15.2886 2.92853 15.0718 2.72736 14.8413C2.67658 14.7847 2.62775 14.7261 2.57892 14.6655C2.55744 14.6382 2.53595 14.6128 2.51447 14.5855C2.5047 14.5718 2.49298 14.5581 2.48322 14.5444C2.60236 14.6929 2.53986 14.6167 2.51251 14.5816C2.42072 14.4585 2.33283 14.3316 2.24884 14.2027C2.05743 13.9058 1.89337 13.5933 1.7547 13.2691C1.77423 13.3159 1.79376 13.3628 1.81329 13.4097C1.59845 12.898 1.45197 12.3628 1.37579 11.814C1.38361 11.8667 1.38947 11.9175 1.39728 11.9702C1.32501 11.4234 1.32501 10.8706 1.39533 10.3237C1.38751 10.3765 1.38165 10.4273 1.37384 10.48C1.48126 9.68898 1.7215 8.92335 2.03009 8.18898C2.01056 8.23585 1.99103 8.28273 1.9715 8.3296C2.29767 7.56007 2.69806 6.82374 3.14337 6.11867C3.36408 5.76906 3.59454 5.42531 3.83283 5.08937C3.95001 4.92531 4.06915 4.76124 4.19025 4.59913C4.24884 4.51906 4.30939 4.44093 4.36994 4.36281C4.38361 4.34328 4.39923 4.3257 4.4129 4.30616C4.46759 4.2339 4.32306 4.4214 4.3797 4.35109C4.41095 4.31202 4.4422 4.27101 4.47345 4.23195C4.9129 3.6714 5.37384 3.12648 5.85236 2.59718C6.19806 2.21437 6.55353 1.83937 6.91876 1.47413C7.08087 1.31202 7.24884 1.15773 7.409 0.997572C7.41095 0.995618 7.4129 0.993665 7.41486 0.991712C7.13947 0.991712 6.86212 0.991712 6.58673 0.991712C7.07697 1.42921 7.5379 1.90187 7.98712 2.38038C8.45587 2.88038 8.90705 3.39601 9.34064 3.92726C9.45783 4.07179 9.57501 4.21827 9.69025 4.36671C9.71759 4.40187 9.77814 4.48195 9.65704 4.32374C9.67072 4.34328 9.68634 4.36085 9.70001 4.38038C9.72931 4.41945 9.75861 4.45656 9.7879 4.49562C9.85236 4.5796 9.91486 4.66359 9.97736 4.74757C10.2176 5.07374 10.45 5.40773 10.6727 5.74757C11.1863 6.53273 11.6473 7.35304 12.0145 8.21632C11.9949 8.16945 11.9754 8.12257 11.9559 8.0757C12.2723 8.8257 12.5164 9.61085 12.6258 10.4194C12.618 10.3667 12.6121 10.3159 12.6043 10.2632C12.6375 10.5523 12.659 10.8413 12.659 11.1323C12.659 11.439 12.9285 11.7319 13.2449 11.7183C13.5613 11.7046 13.8309 11.4605 13.8309 11.1323C13.8289 10.0757 13.5789 9.02492 13.1942 8.04445C12.7899 7.0132 12.2625 6.03859 11.6531 5.11476C11.0789 4.24367 10.4402 3.41359 9.76447 2.61867C9.26251 2.02687 8.73517 1.45656 8.1883 0.907728C7.94025 0.657728 7.68829 0.407728 7.42462 0.175306C7.42072 0.1714 7.41681 0.169447 7.41486 0.16554C7.17072 -0.0512566 6.83087 -0.0590691 6.58673 0.16554C6.33673 0.394056 6.09845 0.636243 5.86017 0.878431C5.26837 1.48195 4.70197 2.11085 4.16095 2.76124C3.43244 3.6382 2.74494 4.55421 2.13751 5.51906C1.50861 6.51906 0.959778 7.58546 0.588685 8.70851C0.407044 9.2632 0.283997 9.82765 0.213685 10.4058C0.139466 11.0269 0.168763 11.646 0.264466 12.2612C0.461731 13.5269 1.05353 14.7163 1.89728 15.6734C2.73712 16.6284 3.86408 17.3335 5.08283 17.6909C6.3504 18.062 7.74298 18.0562 9.0047 17.6636C10.2137 17.2886 11.325 16.5757 12.1531 15.6148C12.9871 14.6441 13.5652 13.4507 13.7488 12.1812C13.7996 11.8316 13.8328 11.4839 13.8328 11.1304C13.8328 10.8237 13.5633 10.5308 13.2469 10.5444C12.9266 10.5601 12.659 10.8042 12.659 11.1323Z" fill="#373737"/>
<path d="M6.99867 13.7653C6.84437 13.7653 6.69007 13.7536 6.53773 13.734C6.59046 13.7419 6.64124 13.7477 6.69398 13.7555C6.3971 13.7145 6.10804 13.6364 5.83265 13.5211C5.87953 13.5407 5.9264 13.5602 5.97328 13.5797C5.77601 13.4958 5.5846 13.3942 5.40687 13.2751C5.36 13.2438 5.31507 13.2126 5.27015 13.1794C5.16859 13.1071 5.37562 13.2653 5.29749 13.2008C5.27796 13.1852 5.25843 13.1696 5.23695 13.152C5.15492 13.0837 5.07679 13.0114 5.00062 12.9372C4.92445 12.861 4.85414 12.7829 4.78578 12.7008C4.77015 12.6813 4.75257 12.6618 4.73695 12.6403C4.6725 12.5602 4.82289 12.7555 4.76625 12.6774C4.73304 12.6325 4.70179 12.5876 4.67054 12.5407C4.5475 12.359 4.44398 12.1657 4.35804 11.9626C4.37757 12.0094 4.3971 12.0563 4.41664 12.1032C4.3014 11.8258 4.22328 11.5387 4.18226 11.2419C4.19007 11.2946 4.19593 11.3454 4.20375 11.3981C4.18421 11.2458 4.17445 11.0915 4.1725 10.9372C4.17054 10.6305 3.90296 10.3376 3.58656 10.3512C3.27015 10.3649 2.99867 10.609 3.00062 10.9372C3.00453 11.7419 3.24671 12.5602 3.71742 13.2184C4.20765 13.902 4.86585 14.4098 5.65492 14.7028C6.0807 14.861 6.54554 14.9352 7.00062 14.9372C7.30726 14.9391 7.60023 14.6676 7.58656 14.3512C7.57093 14.0329 7.32679 13.7653 6.99867 13.7653Z" fill="#373737"/>
</svg>
