<svg width="20" height="20" viewBox="0 0 20 20" fill="none" xmlns="http://www.w3.org/2000/svg">
<g clip-path="url(#clip0_687_1972)">
<path d="M10 0C8.02219 0 6.08879 0.58649 4.4443 1.6853C2.79981 2.78412 1.51809 4.3459 0.761209 6.17317C0.00433283 8.00043 -0.193701 10.0111 0.192152 11.9509C0.578004 13.8907 1.53041 15.6725 2.92894 17.0711C4.32746 18.4696 6.10929 19.422 8.0491 19.8079C9.98891 20.1937 11.9996 19.9957 13.8268 19.2388C15.6541 18.4819 17.2159 17.2002 18.3147 15.5557C19.4135 13.9112 20 11.9778 20 10C20 7.34783 18.9464 4.8043 17.0711 2.92893C15.1957 1.05357 12.6522 0 10 0V0ZM5.022 6.82C5.05901 6.64247 5.1394 6.47688 5.256 6.338C5.32109 6.25632 5.40387 6.19047 5.4981 6.14544C5.59234 6.1004 5.69556 6.07734 5.8 6.078C6.388 6.078 6.976 6.078 7.564 6.078H14.07C14.286 6.07038 14.4974 6.14108 14.6654 6.27707C14.8334 6.41305 14.9465 6.60517 14.984 6.818V6.842C15.024 7.17217 14.9406 7.50547 14.75 7.778C14.5389 8.09497 14.267 8.36689 13.95 8.578C13.024 9.2 12.1 9.846 11.182 10.492C10.9274 10.6898 10.6525 10.8601 10.362 11C10.2464 11.0552 10.1196 11.0829 9.99159 11.0808C9.86354 11.0787 9.73771 11.0469 9.624 10.988C9.37019 10.8538 9.12444 10.7049 8.888 10.542C8.10134 10.0087 7.31867 9.46533 6.54 8.912C6.17926 8.68996 5.84393 8.42907 5.54 8.134C5.31754 7.91578 5.15026 7.64772 5.052 7.352C5.00004 7.17954 4.98976 6.99721 5.022 6.82ZM14.082 13.932C11.7527 13.932 9.42334 13.932 7.094 13.932H5.908C5.78798 13.9312 5.66928 13.9068 5.55869 13.8601C5.44809 13.8135 5.34778 13.7455 5.26346 13.6601C5.17914 13.5746 5.11248 13.4734 5.06728 13.3622C5.02207 13.251 4.99921 13.132 5 13.012C5 12.012 5 10.994 5 9.984C5 9.53 5 9.076 5 8.584C5.41 9.038 5.918 9.306 6.382 9.632C7.172 10.192 7.966 10.744 8.758 11.302C9.00342 11.4742 9.27302 11.609 9.558 11.702C9.84911 11.7925 10.1614 11.7883 10.45 11.69C10.7583 11.5873 11.0485 11.4368 11.31 11.244C12.338 10.524 13.374 9.812 14.402 9.09C14.602 8.948 14.786 8.782 14.986 8.62C14.986 8.82 14.986 9.04 14.986 9.252C14.986 10.506 14.976 11.76 14.986 13.012C14.9825 13.2522 14.8867 13.4818 14.7183 13.6531C14.55 13.8244 14.3221 13.9243 14.082 13.932Z" fill="#8F8F8F"/>
</g>
<defs>
<clipPath id="clip0_687_1972">
<rect width="20" height="20" fill="white"/>
</clipPath>
</defs>
</svg>
