<svg width="20" height="15" viewBox="0 0 20 15" fill="none" xmlns="http://www.w3.org/2000/svg">
<path fill-rule="evenodd" clip-rule="evenodd" d="M19.3462 1.10501C19.566 1.07654 19.7382 1.14027 19.8638 1.2962C20.005 1.43769 20.0365 1.60085 19.9579 1.78482L19.9344 1.91229C19.2131 4.09323 18.7971 5.63727 18.6875 6.54355C18.6249 7.30834 18.5153 7.87472 18.3581 8.24309C17.794 9.48971 16.8289 10.4525 15.4649 11.1323C14.2575 11.6987 13.0572 11.9821 11.8654 11.9821C11.6612 11.9821 11.3083 11.9256 10.8067 11.8121L10.5475 11.7484C10.3908 11.7204 10.2652 11.6422 10.1711 11.5147C10.0769 11.4013 10.0454 11.2738 10.0769 11.1323C10.108 10.9908 10.1946 10.8774 10.3357 10.7924C10.4614 10.7074 10.6021 10.679 10.7592 10.7074L11.8649 10.9199C12.8846 10.9199 13.8957 10.6794 14.8998 10.1976C16.0291 9.64522 16.8129 8.8664 17.2524 7.86069C17.362 7.5773 17.4566 7.1027 17.5347 6.43733C17.6288 5.5166 17.9897 4.10768 18.6174 2.20971L18.1469 2.23095L15.535 2.12473C13.4177 2.15277 11.6297 2.71957 10.1715 3.82428C9.34011 4.48965 8.76795 5.2264 8.45412 6.03368C8.32849 6.37359 8.24991 6.74919 8.21885 7.15963V7.39332C8.21885 7.6338 8.23438 7.82543 8.26638 7.96692C8.37601 8.34931 8.50164 8.71047 8.6428 9.05037L8.7369 9.26282C9.89721 7.70476 11.4579 6.33833 13.4181 5.16267C13.5278 5.07769 13.6694 5.04922 13.8416 5.07769C13.9983 5.10616 14.1159 5.18391 14.1945 5.31138C14.2886 5.42482 14.3201 5.55909 14.2886 5.71502C14.2575 5.85651 14.171 5.96273 14.0298 6.03368C11.8339 7.3793 10.2106 8.93013 9.15943 10.6862L9.1359 10.7074C8.46117 11.8546 8.03817 13.1153 7.86549 14.4889C7.84997 14.6304 7.78739 14.7438 7.67776 14.8288C7.56812 14.9278 7.44249 14.9775 7.30087 14.9775L7.23076 14.9563C7.05761 14.9423 6.92445 14.8785 6.83034 14.7651C6.73671 14.6516 6.69719 14.5242 6.71271 14.3827C6.85434 12.9381 7.27734 11.6137 7.98312 10.41C7.84197 10.1411 7.69328 9.80795 7.53613 9.41153L7.27734 8.71047C5.14446 9.13535 3.47411 8.90846 2.26675 8.03065C0.666971 6.88346 -0.0858659 4.70974 0.00776805 1.50865C0.00776805 1.36716 0.0628196 1.24649 0.172922 1.14749C0.283024 1.0485 0.416181 0.991985 0.572865 0.977539H0.690496C4.23494 0.977539 6.6586 2.16722 7.96007 4.54658C8.30496 4.0227 8.78348 3.52686 9.39516 3.05948C11.073 1.74234 13.1283 1.08376 15.5595 1.08376L18.1473 1.16874C18.5073 1.16874 18.9072 1.14749 19.3462 1.10501ZM4.05426 4.27041C4.13237 4.14294 4.25 4.05796 4.40715 4.01548C4.56384 3.98743 4.71252 4.00825 4.85415 4.07921C5.84225 4.61754 6.64966 5.21918 7.27687 5.88497V5.86373C6.36688 3.42786 4.32811 2.16042 1.16008 2.061C1.19113 4.62434 1.79575 6.3311 2.97206 7.18088C3.92863 7.87472 5.28515 8.03787 7.04161 7.66949V7.39332C6.38335 6.44455 5.45783 5.64406 4.266 4.99271C4.12437 4.92176 4.03074 4.81554 3.98321 4.67405C3.95263 4.53256 3.97568 4.39787 4.05426 4.27041Z" fill="#373737"/>
</svg>
