<svg width="17" height="18" viewBox="0 0 17 18" fill="none" xmlns="http://www.w3.org/2000/svg">
<path d="M17 13.6715C17 12.2879 16.301 11.0214 15.1224 10.2839L14.2908 9.75999C13.5357 9.28695 13.0357 8.51381 12.9184 7.63386L11.949 0.441656C11.9133 0.161903 11.6531 -0.0313815 11.3776 0.00422348C11.0969 0.0398285 10.9031 0.299236 10.9388 0.573903L11.9133 7.76611C12.0714 8.94616 12.7449 9.98379 13.7551 10.6196L14.5867 11.1435C15.4643 11.6928 15.9847 12.6389 15.9847 13.6765C15.9847 14.5209 15.6429 15.3042 15.0153 15.8739C14.3929 16.4436 13.5816 16.7233 12.7347 16.6521L10.9286 16.4995C11.2347 16.0824 11.7245 15.8332 12.2449 15.8332H12.6378C12.9184 15.8332 13.148 15.6043 13.148 15.3245C13.148 15.0448 12.9184 14.8159 12.6378 14.8159H12.2449C11.3571 14.8159 10.5306 15.2533 10.0357 15.9909L9.85714 16.2554C9.55102 16.708 9.04082 16.9776 8.4949 16.9776C7.94898 16.9776 7.43877 16.708 7.13265 16.2554L6.95408 15.9909C6.45918 15.2533 5.63265 14.8159 4.7449 14.8159H4.29592C4.01531 14.8159 3.78571 15.0448 3.78571 15.3245C3.78571 15.6043 4.01531 15.8332 4.29592 15.8332H4.7449C5.26531 15.8332 5.7551 16.0824 6.06122 16.4995L4.2551 16.6521C3.40816 16.7233 2.60204 16.4486 1.97449 15.8739C1.35204 15.3042 1.0051 14.5209 1.0051 13.6765C1.0051 12.644 1.53061 11.6979 2.40816 11.1486L3.2551 10.6196C4.2602 9.99396 4.93367 8.96142 5.09694 7.78645L6.11735 0.584076C6.15816 0.304323 5.96429 0.0500012 5.68367 0.00930983C5.40306 -0.0313816 5.14796 0.161903 5.10714 0.441656L4.08673 7.64404C3.96429 8.5189 3.45918 9.28695 2.71429 9.7549L1.88265 10.2839C0.704082 11.0214 0 12.2879 0 13.6765C0 14.7956 0.47449 15.8688 1.30102 16.6216C2.12755 17.3795 3.2398 17.7559 4.35714 17.6643L6.88775 17.4507C7.34694 17.8016 7.91327 18 8.5051 18C9.09694 18 9.66326 17.8016 10.1224 17.4507L12.6531 17.6643C12.7653 17.6745 12.8776 17.6796 12.9898 17.6796C13.9898 17.6796 14.9643 17.3032 15.7092 16.6267C16.5306 15.8637 17 14.7905 17 13.6715Z" fill="#373737"/>
</svg>
