<svg width="20" height="20" viewBox="0 0 20 20" fill="none" xmlns="http://www.w3.org/2000/svg">
<path fill-rule="evenodd" clip-rule="evenodd" d="M10 0C15.5172 0 20 4.48276 20 10C20 15.5172 15.5172 20 10 20C4.48276 20 0 15.5172 0 10C0 4.48276 4.48276 0 10 0ZM7.03448 5.24138C6.62069 5.31034 5.72414 6.27586 5.58621 6.68966C5.37931 7.44828 6 9.24138 6.41379 9.86207C7.65517 12 8.62069 12.8966 10.6207 14.1379C11.1034 14.4138 12 14.7586 12.6207 14.8276C13.0345 14.8276 13.3103 14.6207 13.5172 14.4138C14.069 13.8621 14.8276 13.5862 14.2759 12.9655L13.0345 11.5862C12.9655 11.4483 12.6897 11.3103 12.4828 11.4483C12.2759 11.5172 11.5862 12.2069 11.3793 12.4138C10.5517 12.7586 7.72414 9.51724 7.72414 8.62069C7.72414 8.2069 8.55172 7.86207 8.82759 7.37931C8.96552 7.24138 8.96552 7.10345 8.89655 6.89655C8.75862 6.68966 7.72414 5.51724 7.51724 5.31034C7.37931 5.24138 7.17241 5.17241 7.03448 5.24138Z" fill="#8F8F8F"/>
</svg>
