<svg width="19" height="19" viewBox="0 0 19 19" fill="none" xmlns="http://www.w3.org/2000/svg">
<path fill-rule="evenodd" clip-rule="evenodd" d="M7.70304 7.23815V6.78577C7.70304 5.78637 8.51319 4.97619 9.51256 4.97619C10.5119 4.97619 11.3221 5.78637 11.3221 6.78583C11.3221 7.68207 10.6705 8.42613 9.81522 8.57015C9.71681 8.58672 9.61569 8.59535 9.51256 8.59535H9.06018V11.7343H9.96494V9.46259C9.99688 9.45723 10.0286 9.45131 10.0602 9.44485C11.2967 9.19152 12.2268 8.09729 12.2268 6.78583C12.2268 5.28669 11.0116 4.07143 9.51256 4.07143C8.20109 4.07143 7.10686 5.00156 6.85354 6.23815C6.81731 6.41503 6.79828 6.59818 6.79828 6.78577V7.23815H7.70304ZM9.6078 14.0238C9.6078 13.9712 9.56516 13.9286 9.51256 13.9286C9.45996 13.9286 9.41733 13.9712 9.41733 14.0238C9.41733 14.0764 9.45996 14.119 9.51256 14.119C9.56516 14.119 9.6078 14.0764 9.6078 14.0238ZM9.5 19C14.7468 19 19 14.7469 19 9.5C19 4.25307 14.7468 0 9.5 0C4.2535 0 0 4.25324 0 9.5C0 14.7468 4.2535 19 9.5 19ZM9.5 0.818182C14.295 0.818182 18.1818 4.70494 18.1818 9.5C18.1818 14.2951 14.295 18.1818 9.5 18.1818C4.70536 18.1818 0.818173 14.2949 0.818173 9.5C0.818173 4.70513 4.70536 0.818182 9.5 0.818182ZM8.6078 14.0238C8.6078 14.5235 9.01288 14.9286 9.51256 14.9286C10.0122 14.9286 10.4173 14.5235 10.4173 14.0238C10.4173 13.5241 10.0122 13.119 9.51256 13.119C9.01288 13.119 8.6078 13.5241 8.6078 14.0238Z" fill="black"/>
</svg>
