<svg width="26" height="15" viewBox="0 0 26 15" fill="none" xmlns="http://www.w3.org/2000/svg">
<path d="M25.6454 0.0142371C25.5237 -0.0140377 25.3941 0.000145257 25.2845 0.0537305C25.1748 0.107316 25.0939 0.196014 25.0591 0.300717L23.784 4.40024C23.2759 4.31225 22.7984 4.12293 22.3897 3.84734C21.6546 3.36745 20.7588 3.10784 19.8378 3.10784C18.9169 3.10784 18.021 3.36745 17.2859 3.84734C16.7098 4.23505 16.0006 4.44556 15.2706 4.44556C14.5406 4.44556 13.8314 4.23505 13.2553 3.84734C12.5204 3.367 11.6245 3.10712 10.7034 3.10712C9.78232 3.10712 8.88638 3.367 8.15153 3.84734C7.58266 4.24566 6.86961 4.45767 6.13785 4.44608C5.40604 4.45792 4.6929 4.24588 4.12417 3.84734C3.45748 3.40205 2.6474 3.14679 1.80579 3.11681L0.931432 0.309311C0.890285 0.211669 0.808319 0.130916 0.701711 0.0829873C0.595102 0.0350589 0.471596 0.0234376 0.355567 0.050417C0.239538 0.0773963 0.139416 0.141016 0.074959 0.228721C0.0105023 0.316426 -0.0136058 0.421844 0.00739275 0.524171L3.5777 12.0235C3.87951 12.8594 4.47276 13.5941 5.27617 14.127C6.07958 14.6598 7.05383 14.9648 8.06542 15H17.9152C18.9268 14.9648 19.9011 14.6598 20.7045 14.127C21.5079 13.5941 22.1011 12.8594 22.4029 12.0235L25.9832 0.524171C25.9997 0.471501 26.0041 0.416525 25.9961 0.362386C25.9881 0.308246 25.9678 0.256005 25.9364 0.208647C25.9051 0.161289 25.8632 0.119743 25.8133 0.0863854C25.7633 0.0530274 25.7063 0.0285111 25.6454 0.0142371ZM21.4789 11.7972C21.2319 12.4569 20.7587 13.036 20.1222 13.4577C19.4857 13.8793 18.716 14.1235 17.9152 14.1577H8.06542C7.26468 14.1235 6.49494 13.8793 5.85842 13.4577C5.22191 13.036 4.74873 12.4569 4.50174 11.7972L2.06081 3.96479C2.6188 4.03736 3.14515 4.23488 3.58763 4.53775C4.31519 5.0288 5.21514 5.28963 6.13785 5.27687C7.05978 5.28793 7.9584 5.02613 8.68475 4.53489C9.26065 4.14787 9.96916 3.93778 10.6984 3.93778C11.4277 3.93778 12.1362 4.14787 12.7121 4.53489C13.447 5.01523 14.3429 5.27511 15.264 5.27511C16.1851 5.27511 17.081 5.01523 17.8159 4.53489C18.3923 4.14764 19.1013 3.93743 19.8312 3.93743C20.561 3.93743 21.2701 4.14764 21.8465 4.53489C22.3458 4.86354 22.9224 5.09336 23.5356 5.20812L21.4789 11.7972Z" fill="black"/>
<path d="M10.9501 12.2011C11.5153 12.2011 11.9735 11.8048 11.9735 11.3159C11.9735 10.827 11.5153 10.4306 10.9501 10.4306C10.3849 10.4306 9.92674 10.827 9.92674 11.3159C9.92674 11.8048 10.3849 12.2011 10.9501 12.2011Z" fill="black"/>
<path d="M15.0305 12.2011C15.5957 12.2011 16.0539 11.8048 16.0539 11.3159C16.0539 10.827 15.5957 10.4306 15.0305 10.4306C14.4653 10.4306 14.0071 10.827 14.0071 11.3159C14.0071 11.8048 14.4653 12.2011 15.0305 12.2011Z" fill="black"/>
<path d="M8.90997 9.13289C9.47517 9.13289 9.93337 8.73656 9.93337 8.24767C9.93337 7.75877 9.47517 7.36245 8.90997 7.36245C8.34476 7.36245 7.88657 7.75877 7.88657 8.24767C7.88657 8.73656 8.34476 9.13289 8.90997 9.13289Z" fill="black"/>
<path d="M12.9903 9.13289C13.5555 9.13289 14.0137 8.73656 14.0137 8.24767C14.0137 7.75877 13.5555 7.36245 12.9903 7.36245C12.4251 7.36245 11.9669 7.75877 11.9669 8.24767C11.9669 8.73656 12.4251 9.13289 12.9903 9.13289Z" fill="black"/>
<path d="M17.0707 9.13289C17.6359 9.13289 18.0941 8.73656 18.0941 8.24767C18.0941 7.75877 17.6359 7.36245 17.0707 7.36245C16.5055 7.36245 16.0473 7.75877 16.0473 8.24767C16.0473 8.73656 16.5055 9.13289 17.0707 9.13289Z" fill="black"/>
</svg>
