<svg width="20" height="20" viewBox="0 0 20 20" fill="none" xmlns="http://www.w3.org/2000/svg">
<g clip-path="url(#clip0_687_1955)">
<path d="M8.98674 16.9609C9.67454 16.9609 10.3623 16.9918 11.0501 16.9463C11.676 16.9153 12.3345 16.8551 12.9457 16.7021C17.8059 15.5124 20.4039 10.1543 18.2786 5.62303C16.9942 2.89028 14.7939 1.33266 11.7836 1.01202C9.4757 0.767884 7.4123 1.45473 5.66998 3.01072C3.95862 4.55206 3.07198 6.47426 3.01168 8.77895C2.99701 9.31281 3.01168 9.86294 3.01168 10.3968C2.99538 11.5589 2.33854 12.459 1.22209 12.8089C1.20742 12.8089 1.17645 12.8398 1.16016 12.8398C1.58881 13.9694 3.3295 15.6328 4.41498 16.0446C5.77755 14.1826 8.52712 14.8402 8.98674 16.9609Z" fill="white"/>
<path d="M8.95635 17.9819C8.78847 18.7452 8.37612 19.31 7.70299 19.6599C6.84731 20.1026 5.97534 20.088 5.1653 19.5688C4.32429 19.0349 3.95757 18.226 4.0195 17.2332C4.03417 17.0655 3.98854 17.0037 3.85163 16.9272C2.36846 16.1492 1.19333 15.0652 0.383289 13.6004C0.230082 13.3107 0.107842 13.0047 0.0312391 12.684C-0.0763316 12.2413 0.0931738 12.0281 0.551164 11.9825C1.10206 11.9207 1.59101 11.7075 1.83549 11.1883C1.94306 10.9588 2.00337 10.6853 2.00337 10.4249C2.03434 9.76899 2.00337 9.11306 2.03434 8.45551C2.20221 5.92133 3.25673 3.81684 5.18322 2.16807C6.95488 0.644636 9.03295 -0.0715098 11.3702 0.00335998C15.4513 0.156355 18.9506 3.02582 19.7754 7.03949C20.5235 10.6723 19.394 13.7094 16.5042 16.0743C16.3363 16.211 16.1522 16.3494 15.9533 16.4715C15.8458 16.548 15.8164 16.6082 15.8621 16.7302C16.2434 17.8907 15.7089 19.1717 14.6397 19.7218C13.1875 20.4396 11.5071 19.7071 11.0638 18.1495C11.0491 18.0877 10.9725 18.0128 10.9268 18.0128C10.2863 17.9672 9.62785 17.9819 8.95635 17.9819ZM8.98731 16.9597C9.67511 16.9597 10.3629 16.9907 11.0507 16.9451C11.6766 16.9142 12.335 16.8539 12.9462 16.701C17.8065 15.5112 20.4045 10.1531 18.2791 5.62185C16.9948 2.8891 14.7945 1.33148 11.7842 1.01085C9.47627 0.766706 7.41287 1.45356 5.67055 3.00954C3.9592 4.55089 3.07256 6.47309 3.01225 8.77777C2.99758 9.31163 3.01225 9.86176 3.01225 10.3956C2.99595 11.5577 2.33912 12.4578 1.22267 12.8077C1.208 12.8077 1.17703 12.8386 1.16073 12.8386C1.58938 13.9682 3.33007 15.6316 4.41556 16.0434C5.77812 14.1814 8.52769 14.839 8.98731 16.9597Z" fill="#8F8F8F"/>
<path d="M12.2124 12.9781C10.4081 12.8869 9.21667 12.1692 8.45227 10.7352C8.26809 10.3837 8.4376 10.0337 8.78802 9.95723C9.00153 9.91166 9.20037 10.0647 9.35358 10.3088C9.55242 10.6148 9.75127 10.9191 10.0104 11.1633C11.4463 12.5207 13.7998 12.0943 14.7028 10.3397C14.8103 10.1265 14.9473 9.95886 15.2064 9.95886C15.5878 9.97351 15.8029 10.356 15.6351 10.7059C15.1608 11.6678 14.4127 12.3693 13.4038 12.7046C12.9605 12.856 12.5025 12.9162 12.2124 12.9781Z" fill="#8F8F8F"/>
<path d="M9.01602 7.97168C8.46513 7.97168 8.02344 7.52897 8.02344 6.98047C8.02344 6.43197 8.46676 5.98926 9.01602 5.98926C9.56528 5.98926 10.0086 6.43197 10.0086 6.98047C10.0102 7.51432 9.56691 7.97168 9.01602 7.97168Z" fill="#8F8F8F"/>
<path d="M16.0174 6.96387C16.0174 7.514 15.5741 7.95508 15.0395 7.97135C14.4886 7.97135 14.0469 7.54329 14.0469 6.98014C14.0469 6.43001 14.4755 5.98893 15.0248 5.97266C15.5594 5.97266 16.0011 6.41536 16.0174 6.96387Z" fill="#8F8F8F"/>
</g>
<defs>
<clipPath id="clip0_687_1955">
<rect width="20" height="20" fill="white"/>
</clipPath>
</defs>
</svg>
