<svg width="20" height="20" viewBox="0 0 20 20" fill="none" xmlns="http://www.w3.org/2000/svg">
<path d="M10 20C15.5228 20 20 15.5228 20 10C20 4.47715 15.5228 0 10 0C4.47715 0 0 4.47715 0 10C0 15.5228 4.47715 20 10 20Z" fill="#8F8F8F"/>
<path d="M14.4291 5.5452C13.2538 4.36863 11.6911 3.72051 10.0261 3.71973C6.59578 3.71973 3.80328 6.5116 3.80219 9.94332C3.80156 11.0405 4.08828 12.1113 4.63281 13.0547L3.75 16.28L7.04922 15.4147C7.95844 15.9102 8.98188 16.1716 10.0236 16.1721H10.0263C13.4566 16.1721 16.2486 13.3797 16.25 9.94816C16.2508 8.28535 15.6038 6.7216 14.4291 5.5452ZM10.0263 15.1208H10.0242C9.09563 15.1205 8.18531 14.8711 7.39094 14.3999L7.20203 14.2877L5.24422 14.8013L5.76656 12.8925L5.64359 12.6963C5.12563 11.8729 4.85203 10.9211 4.85266 9.94332C4.85359 7.09129 7.17438 4.77082 10.0278 4.77082C11.4097 4.77113 12.7083 5.31004 13.6852 6.28801C14.6619 7.26582 15.1994 8.56535 15.1991 9.94769C15.1981 12.8002 12.8773 15.1208 10.0263 15.1208ZM12.8638 11.2466C12.7081 11.1686 11.9436 10.7929 11.8009 10.7405C11.6583 10.6886 11.555 10.6629 11.4513 10.8185C11.3475 10.9741 11.0495 11.3246 10.9586 11.4283C10.868 11.5321 10.7773 11.5452 10.6217 11.4672C10.4661 11.3893 9.96516 11.2252 9.37156 10.6952C8.90906 10.2832 8.59688 9.77348 8.50625 9.61785C8.41563 9.46223 8.49656 9.37832 8.57453 9.30066C8.64453 9.23098 8.73016 9.1191 8.80781 9.02816C8.88547 8.93723 8.91141 8.87238 8.96328 8.76879C9.01516 8.66504 8.98938 8.57426 8.95031 8.49644C8.91125 8.41848 8.60031 7.65301 8.47094 7.3416C8.34453 7.03832 8.21641 7.07941 8.12109 7.07473C8.03016 7.07035 7.92656 7.0691 7.82297 7.0691C7.71938 7.0691 7.55078 7.10801 7.40828 7.26379C7.26594 7.41941 6.86406 7.79551 6.86406 8.56129C6.86406 9.3266 7.42125 10.0663 7.49906 10.1699C7.57688 10.2735 8.59563 11.8446 10.1556 12.5182C10.5266 12.6782 10.8164 12.7739 11.0422 12.8458C11.4147 12.9644 11.7538 12.9474 12.0219 12.9074C12.3206 12.8629 12.9419 12.5313 13.0717 12.168C13.2013 11.8049 13.2013 11.4936 13.162 11.4286C13.1228 11.3635 13.0191 11.3246 12.8638 11.2466Z" fill="white"/>
</svg>
