<svg width="50" height="8" viewBox="0 0 50 8" fill="none" xmlns="http://www.w3.org/2000/svg">
<path d="M7.16892 7.53706H5.48992L6.44892 2.16006L4.30692 7.53706H3.16392L3.01692 2.18906L2.01192 7.53706H0.440918L1.75192 0.539062H4.16192L4.22992 4.87306L5.86092 0.539062H8.46592L7.16892 7.53706Z" fill="#373737"/>
<path d="M11.2977 5.00468C11.1207 4.98468 11.0427 4.97968 10.9247 4.97968C9.97368 4.97968 9.49468 5.27068 9.49468 5.84668C9.49468 6.20168 9.72668 6.42668 10.0917 6.42668C10.7767 6.42668 11.2697 5.84668 11.2977 5.00468ZM12.5187 7.53768C12.2957 7.53768 11.1287 7.53768 11.1287 7.53768L11.1617 6.94768C10.7357 7.41268 10.1697 7.63568 9.40368 7.63568C8.49368 7.63568 7.86768 7.00068 7.86768 6.08068C7.86768 4.69368 8.95368 3.88968 10.8177 3.88968C11.0057 3.88968 11.2467 3.90568 11.4987 3.93468C11.5487 3.74568 11.5647 3.66668 11.5647 3.56368C11.5647 3.18668 11.2727 3.04768 10.4867 3.04768C9.66568 3.03768 8.99068 3.21968 8.71168 3.30368C8.72968 3.20968 8.94468 2.02468 8.94468 2.02468C9.78068 1.80768 10.3327 1.72168 10.9527 1.72168C12.3927 1.72168 13.1577 2.30168 13.1537 3.39168C13.1587 3.68268 13.1027 4.04368 13.0187 4.51668C12.8727 5.34068 12.5627 7.10568 12.5187 7.53768Z" fill="#373737"/>
<path d="M35.02 0.730234L34.748 2.25023C34.148 1.98223 33.715 1.87123 33.247 1.87123C31.996 1.87123 31.116 2.94923 31.116 4.49023C31.116 5.55323 31.707 6.19324 32.683 6.19324C33.095 6.19324 33.552 6.08024 34.107 5.83624L33.815 7.43023C33.193 7.57823 32.794 7.63523 32.332 7.63523C30.521 7.63523 29.396 6.47723 29.396 4.61523C29.396 2.11723 30.957 0.365234 33.178 0.365234C33.909 0.365234 34.772 0.643234 35.02 0.730234Z" fill="#373737"/>
<path d="M37.7289 5.00468C37.5519 4.98468 37.4739 4.97968 37.3539 4.97968C36.4019 4.97968 35.9198 5.27068 35.9198 5.84668C35.9198 6.20168 36.1548 6.42668 36.5238 6.42668C37.2018 6.42668 37.6969 5.84668 37.7289 5.00468ZM38.9459 7.53768C38.7249 7.53768 37.5559 7.53768 37.5559 7.53768L37.5869 6.94768C37.1629 7.41268 36.5979 7.63568 35.8319 7.63568C34.9179 7.63568 34.2979 7.00068 34.2979 6.08068C34.2979 4.69368 35.3859 3.88968 37.2429 3.88968C37.4329 3.88968 37.6758 3.90568 37.9258 3.93468C37.9769 3.74568 37.9909 3.66668 37.9909 3.56368C37.9909 3.18668 37.6999 3.04768 36.9139 3.04768C36.0979 3.03768 35.4159 3.21968 35.1389 3.30368C35.1579 3.20968 35.3729 2.02468 35.3729 2.02468C36.2119 1.80768 36.7609 1.72168 37.3789 1.72168C38.8209 1.72168 39.5839 2.30168 39.5799 3.39168C39.5879 3.68268 39.5299 4.04368 39.4489 4.51668C39.2999 5.34068 38.9899 7.10568 38.9459 7.53768Z" fill="#373737"/>
<path d="M19.9738 7.44928C19.5148 7.57828 19.1578 7.63528 18.7688 7.63528C17.9108 7.63528 17.4418 7.19428 17.4418 6.38328C17.4288 6.13328 17.5658 5.47528 17.6728 4.86728C17.7738 4.33828 18.4018 0.988281 18.4018 0.988281H20.0698L19.8738 1.84928H20.7318L20.5028 3.21228H19.6428C19.4508 4.29828 19.1708 5.64428 19.1688 5.81928C19.1688 6.11428 19.3458 6.24528 19.7468 6.24528C19.9388 6.24528 20.0878 6.22528 20.2008 6.19028L19.9738 7.44928Z" fill="#373737"/>
<path d="M25.0862 7.40668C24.5142 7.56068 23.9602 7.63568 23.3752 7.63568C21.5102 7.63368 20.5352 6.76468 20.5352 5.09868C20.5352 3.15568 21.7712 1.72168 23.4522 1.72168C24.8302 1.72168 25.7082 2.52468 25.7082 3.78068C25.7082 4.19868 25.6472 4.60468 25.5022 5.18068H22.1802C22.0692 6.00468 22.6622 6.34868 23.6292 6.34868C24.2282 6.34868 24.7652 6.23968 25.3662 5.99168L25.0862 7.40668ZM24.1492 4.02968C24.1572 3.91468 24.3242 3.01568 23.3732 3.01568C22.8442 3.01568 22.4672 3.38068 22.3082 4.02968H24.1492Z" fill="#373737"/>
<path d="M13.5237 3.64666C13.5237 4.36766 13.9137 4.86166 14.8017 5.23466C15.4777 5.51766 15.5857 5.60166 15.5857 5.86166C15.5857 6.21666 15.2857 6.37766 14.6207 6.37766C14.1227 6.37766 13.6587 6.31166 13.1177 6.15466C13.1177 6.15466 12.8997 7.40866 12.8877 7.46566C13.2697 7.53966 13.6117 7.60866 14.6347 7.63566C16.4037 7.63566 17.2257 7.03366 17.2257 5.73366C17.2257 4.95466 16.8777 4.49566 16.0397 4.14766C15.3347 3.86066 15.2547 3.79566 15.2547 3.53266C15.2547 3.22366 15.5347 3.06566 16.0777 3.06566C16.4077 3.06566 16.8577 3.09666 17.2807 3.15566L17.5187 1.83366C17.0857 1.77266 16.4237 1.72266 16.0417 1.72266C14.1677 1.72166 13.5197 2.59866 13.5237 3.64666Z" fill="#373737"/>
<path d="M47.8261 7.53704H46.2411L46.3201 7.00604C45.8571 7.44404 45.3851 7.63504 44.7701 7.63504C43.5541 7.63504 42.7461 6.69704 42.7461 5.27204C42.7461 3.38304 43.9991 1.78604 45.4751 1.78604C46.1231 1.78604 46.6201 2.02604 47.0771 2.56304L47.4501 0.540039H49.1021L47.8261 7.53704ZM45.3531 6.22104C46.1331 6.22104 46.6831 5.43204 46.6831 4.30504C46.6831 3.58204 46.3691 3.19004 45.7941 3.19004C45.0341 3.19004 44.4931 3.98304 44.4931 5.10204C44.4931 5.84604 44.7801 6.22104 45.3531 6.22104Z" fill="#373737"/>
<path d="M40.4579 1.85013C40.2509 3.61013 39.8739 5.39313 39.5809 7.15513L39.5059 7.53813H41.1829C41.7859 4.05913 41.9269 3.38213 42.8719 3.46413C43.0209 2.75113 43.2999 2.13013 43.5089 1.81613C42.8049 1.68513 42.4129 2.03713 41.8999 2.71113C41.9409 2.42013 42.0149 2.14113 42.0009 1.85213H40.4579V1.85013Z" fill="#373737"/>
<path d="M26.6488 1.85013C26.4378 3.61013 26.0628 5.39313 25.7738 7.15513L25.6958 7.53813H27.3778C27.9738 4.05913 28.1218 3.38213 29.0598 3.46413C29.2118 2.75113 29.4898 2.13013 29.6968 1.81613C28.9948 1.68513 28.6008 2.03713 28.0898 2.71113C28.1308 2.42013 28.2068 2.14113 28.1918 1.85213H26.6488V1.85013Z" fill="#373737"/>
<path d="M48.562 7.09255C48.562 6.84655 48.788 6.64355 49.063 6.64355C49.34 6.64355 49.56 6.84655 49.56 7.09255C49.56 7.33655 49.34 7.53756 49.063 7.53756C48.787 7.53756 48.562 7.33655 48.562 7.09255ZM49.063 7.43056C49.271 7.43056 49.442 7.27855 49.442 7.09255C49.442 6.90355 49.271 6.75256 49.063 6.75256C48.851 6.75256 48.686 6.90255 48.686 7.09255C48.686 7.27755 48.851 7.43056 49.063 7.43056ZM48.993 7.28555H48.891V6.89455H49.075C49.118 6.89455 49.154 6.89655 49.19 6.91455C49.225 6.93555 49.247 6.97155 49.247 7.01255C49.247 7.05955 49.216 7.09856 49.17 7.11456L49.247 7.28655H49.14L49.07 7.13055H48.994V7.28555H48.993ZM48.993 7.06455H49.05C49.073 7.06455 49.093 7.06856 49.111 7.05856C49.132 7.04656 49.142 7.02955 49.142 7.01155C49.142 6.99355 49.132 6.98255 49.117 6.97055C49.096 6.96255 49.066 6.96456 49.051 6.96456H48.994V7.06455H48.993Z" fill="#373737"/>
</svg>
