<svg width="28" height="10" viewBox="0 0 28 10" fill="none" xmlns="http://www.w3.org/2000/svg">
<g clip-path="url(#clip0_687_867)">
<path d="M12.1499 9.87005H9.88988L11.2999 1.16005H13.5499L12.1499 9.87005ZM20.3099 1.37005C19.6723 1.12254 18.9938 0.99703 18.3099 1.00005C16.0899 1.00005 14.5199 2.19005 14.5099 3.88005C14.5099 5.13005 15.6299 5.83005 16.5099 6.25005C17.3899 6.67005 17.6699 6.95005 17.6699 7.33005C17.6699 7.91005 16.9699 8.18005 16.3199 8.18005C15.5897 8.19946 14.8657 8.04162 14.2099 7.72005L13.9099 7.58005L13.5899 9.58005C14.3944 9.88709 15.2487 10.043 16.1099 10.0401C18.4699 10.0401 20.0099 8.87005 20.0299 7.04005C20.0299 6.04005 19.4299 5.29005 18.1399 4.67005C17.3499 4.27005 16.8699 4.00005 16.8699 3.60005C16.8699 3.20005 17.2699 2.85005 18.1599 2.85005C18.7378 2.82903 19.3128 2.94198 19.8399 3.18005L20.0499 3.27005L20.3499 1.39005L20.3099 1.37005ZM23.3099 6.78005H25.1799L24.6599 4.26005L24.4999 3.51005C24.3899 3.84005 24.1999 4.36005 24.2099 4.35005C24.2199 4.34005 23.4899 6.28005 23.3099 6.78005ZM26.0899 1.16005L27.8999 9.87005H25.8199C25.8199 9.87005 25.6099 8.87005 25.5499 8.56005H22.6599C22.5699 8.79005 22.1799 9.87005 22.1799 9.87005H19.8199L23.1699 1.87005C23.2558 1.63613 23.4179 1.43791 23.6301 1.30731C23.8423 1.1767 24.0923 1.12131 24.3399 1.15005L26.0899 1.16005ZM7.99988 1.16005L5.79988 7.10005L5.54988 5.89005C5.00664 4.32699 3.89688 3.02454 2.43988 2.24005L4.43988 9.86005H6.81988L10.3599 1.16005H7.99988ZM3.74988 1.16005H0.129883V1.33005C1.34494 1.58214 2.479 2.13022 3.43145 2.92567C4.38391 3.72113 5.12531 4.73936 5.58988 5.89005L4.80988 1.89005C4.76187 1.66684 4.63343 1.46908 4.44901 1.33446C4.2646 1.19984 4.03711 1.13776 3.80988 1.16005H3.74988Z" fill="#373737"/>
</g>
<defs>
<clipPath id="clip0_687_867">
<rect width="28" height="10" fill="white"/>
</clipPath>
</defs>
</svg>
