<svg width="0" height="0" class="hidden">

	<symbol xmlns="http://www.w3.org/2000/svg" viewBox="0 0 20 20" id="bag"><path fill-rule="evenodd" clip-rule="evenodd" d="M17.75 19H2.2c-.9 0-1.63-.73-1.63-1.64L2.2 7.55c.28-1.41 1.1-1.64 2-1.64h1.08C5.9 3.07 7.77 1 9.98 1c2.2 0 4.07 2.07 4.69 4.9h1.09c.9 0 1.71.24 1.99 1.65l1.64 9.81c0 .9-.74 1.64-1.64 1.64ZM9.98 1.82c-1.78 0-3.3 1.7-3.86 4.09h7.71c-.56-2.38-2.07-4.1-3.85-4.1Zm6.95 5.73c-.12-.56-.39-.82-.97-.82h-1.15c.05.4.08.8.08 1.22a.4.4 0 1 1-.82 0c0-.42-.03-.83-.08-1.22H5.97c-.05.4-.08.8-.08 1.22a.4.4 0 1 1-.82 0c0-.41.03-.82.08-1.22H3.99c-.58 0-.84.26-.97.82L1.4 17.36c0 .46.36.82.81.82h15.55c.45 0 .82-.36.82-.82l-1.64-9.81Z"/></symbol>

	<symbol xmlns="http://www.w3.org/2000/svg" viewBox="0 0 20 18" id="heart"><path d="M9.758 17.899a.333.333 0 0 0 .478 0l8.18-8.403a5.669 5.669 0 0 0 0-7.863A5.318 5.318 0 0 0 14.58 0h-.002c-1.448 0-2.835.59-3.839 1.633l-.741.761-.742-.76a5.333 5.333 0 0 0-7.676 0 5.683 5.683 0 0 0 0 7.862L9.758 17.9ZM2.056 2.1a4.665 4.665 0 0 1 6.721 0l.98 1.007a.333.333 0 0 0 .478 0l.98-1.007A4.664 4.664 0 0 1 14.578.667h.002c1.267 0 2.48.517 3.357 1.43a5.002 5.002 0 0 1 0 6.933l-7.94 8.158-7.94-8.155a5.011 5.011 0 0 1 0-6.936V2.1Z"/></symbol>

	<symbol xmlns="http://www.w3.org/2000/svg" viewBox="0 0 20 20" id="facebook"><path fill-rule="evenodd" clip-rule="evenodd" d="M20 10a10 10 0 1 1-20 0 10 10 0 0 1 20 0ZM8.49 10v5.77h1.9V10h1.9l.3-1.91h-2.2v-.96c0-.5.16-.98.87-.98h1.44v-1.9h-2.04c-1.7 0-2.17 1.12-2.17 2.68v1.16H7.3v1.9H8.5Z"/></symbol>

	<symbol xmlns="http://www.w3.org/2000/svg" viewBox="0 0 20 20" id="whatsapp"><path d="M10.22 4.8A5 5 0 0 0 6 12.43l.12.18-.5 1.85 1.89-.5.18.1a5 5 0 1 0 2.54-9.29Zm2.94 7.13c-.13.35-.73.67-1.02.7-.25.05-.58.06-.94-.05a8.6 8.6 0 0 1-.86-.32c-1.5-.65-2.48-2.16-2.56-2.26-.07-.1-.61-.81-.61-1.55s.39-1.1.52-1.25c.14-.15.3-.2.4-.2l.3.01c.08 0 .2-.03.33.26.12.3.42 1.04.46 1.11.04.08.06.17.01.27-.05.1-.07.16-.15.25-.07.09-.15.2-.22.26-.08.08-.15.16-.07.3.1.16.4.65.84 1.05.57.5 1.05.67 1.2.74.15.08.24.06.33-.04.09-.1.37-.44.47-.59.1-.15.2-.12.34-.07.14.05.88.41 1.03.49.15.07.25.11.28.17.04.07.04.37-.08.72Z"/><path d="M10 0a10 10 0 1 0 0 20 10 10 0 0 0 0-20Zm.22 15.79a6 6 0 0 1-2.87-.73l-3.18.83.85-3.1a6 6 0 0 1 5.2-9.01 5.96 5.96 0 0 1 6 6c0 3.31-2.7 6-6 6Z"/></symbol>

	<symbol xmlns="http://www.w3.org/2000/svg" viewBox="0 0 31 31" id="whatsapp-logo"><path d="M26.35 4.59a15.27 15.27 0 0 0-24 18.4l-2.16 7.9 8.08-2.12A15.27 15.27 0 0 0 26.35 4.59ZM15.56 28.05c-2.28 0-4.5-.62-6.45-1.77L8.64 26l-4.8 1.26 1.29-4.67-.3-.48a12.7 12.7 0 0 1 19.7-15.7 12.7 12.7 0 0 1-8.96 21.64Zm6.96-9.5c-.39-.19-2.26-1.1-2.6-1.24-.36-.12-.61-.19-.86.2-.26.38-.99 1.24-1.21 1.49-.22.25-.45.29-.83.1-.38-.2-1.6-.6-3.06-1.9-1.13-1-1.9-2.25-2.12-2.64-.22-.38-.02-.58.17-.77.17-.17.38-.45.57-.67.19-.22.25-.38.38-.64.13-.25.06-.47-.03-.66-.1-.2-.86-2.07-1.18-2.83-.3-.75-.62-.65-.85-.66l-.73-.01c-.26 0-.67.1-1.02.48s-1.33 1.3-1.33 3.18c0 1.87 1.36 3.68 1.55 3.94.2.25 2.69 4.1 6.51 5.75.91.4 1.62.63 2.17.8.92.3 1.75.25 2.4.15.74-.1 2.26-.92 2.58-1.8.31-.9.31-1.66.22-1.82-.1-.16-.35-.25-.73-.45Z"/></symbol>

	<symbol xmlns="http://www.w3.org/2000/svg" viewBox="0 0 20 20" id="instagram"><path d="M9.92 11.87a1.79 1.79 0 1 0 0-3.58 1.79 1.79 0 0 0 0 3.58Z"/><path d="M12.15 5.7H7.68c-.65 0-1.22.2-1.58.56-.37.37-.57.94-.57 1.59v4.47c0 .65.2 1.22.6 1.62.41.37.94.57 1.6.57h4.42c.65 0 1.22-.2 1.59-.57.4-.36.6-.93.6-1.58V7.89c0-.65-.2-1.18-.56-1.59-.4-.4-.93-.6-1.63-.6Zm-2.23 7.15a2.77 2.77 0 0 1 0-5.53 2.8 2.8 0 0 1 2.8 2.76 2.78 2.78 0 0 1-2.8 2.77Zm2.88-5a.64.64 0 0 1-.65-.65c0-.37.29-.65.65-.65.37 0 .65.28.65.65 0 .36-.28.65-.65.65Z"/><path d="M10 0a10 10 0 1 0 10 10A9.97 9.97 0 0 0 10 0Zm5.32 12.36c0 .93-.32 1.75-.89 2.31-.57.57-1.38.86-2.28.86H7.72c-.9 0-1.7-.29-2.27-.86a3.06 3.06 0 0 1-.9-2.31V7.89a3 3 0 0 1 3.17-3.17h4.48c.93 0 1.7.32 2.27.89.57.57.85 1.34.85 2.28v4.47Z"/></symbol>

</svg>